<svg xmlns="http://www.w3.org/2000/svg" xmlns:xlink="http://www.w3.org/1999/xlink" width="500" zoomAndPan="magnify" viewBox="0 0 375 374.999991" height="500" preserveAspectRatio="xMidYMid meet" version="1.0"><defs><g/><clipPath id="de84a4c711"><path d="M 76 145.230469 L 118.5 145.230469 L 118.5 226 L 76 226 Z M 76 145.230469 " clip-rule="nonzero"/></clipPath><clipPath id="ae9ffef5f9"><path d="M 37.5 146 L 114 146 L 114 226.230469 L 37.5 226.230469 Z M 37.5 146 " clip-rule="nonzero"/></clipPath></defs><rect x="-37.5" width="450" fill="#ffffff" y="-37.499999" height="449.999989" fill-opacity="1"/><rect x="-37.5" width="450" fill="#ffffff" y="-37.499999" height="449.999989" fill-opacity="1"/><g clip-path="url(#de84a4c711)"><path fill="#fff62a" d="M 111.398438 145.230469 L 76.648438 145.230469 L 96.496094 186.378906 C 96.75 186.886719 96.710938 187.46875 96.421875 187.941406 C 96.09375 188.449219 95.585938 188.742188 95.003906 188.742188 L 93.1875 188.742188 C 92.605469 188.742188 92.058594 189.03125 91.769531 189.578125 C 91.476562 190.085938 91.476562 190.703125 91.804688 191.210938 L 113.542969 226 C 116.449219 225.089844 118.59375 222.328125 118.59375 219.128906 L 118.59375 152.464844 C 118.59375 148.464844 115.359375 145.230469 111.398438 145.230469 Z M 111.398438 145.230469 " fill-opacity="1" fill-rule="evenodd"/></g><g clip-path="url(#ae9ffef5f9)"><path fill="#fdfb27" d="M 113.542969 226 L 60.183594 177.4375 C 59.671875 176.964844 59.492188 176.273438 59.746094 175.617188 C 60 174.964844 60.582031 174.566406 61.273438 174.566406 L 67.851562 174.527344 C 68.542969 174.527344 69.125 174.128906 69.34375 173.472656 C 69.597656 172.820312 69.449219 172.128906 68.90625 171.65625 L 40.84375 146.394531 C 38.84375 147.667969 37.5 149.921875 37.5 152.464844 L 37.5 219.128906 C 37.5 223.089844 40.734375 226.324219 44.734375 226.324219 L 111.398438 226.324219 C 112.125 226.324219 112.851562 226.21875 113.542969 226 Z M 113.542969 226 " fill-opacity="1" fill-rule="evenodd"/></g><g fill="#222038" fill-opacity="1"><g transform="translate(134.821196, 180.839374)"><g><path d="M 2.84375 0 L 2.84375 -32.640625 L 9.734375 -32.640625 L 9.734375 -19.171875 L 23.75 -19.171875 L 23.75 -32.640625 L 30.625 -32.640625 L 30.625 0 L 23.75 0 L 23.75 -13.484375 L 9.734375 -13.484375 L 9.734375 0 Z M 2.84375 0 "/></g></g></g><g fill="#222038" fill-opacity="1"><g transform="translate(167.177094, 180.839374)"><g><path d="M 13.859375 0.484375 C 11.359375 0.484375 9.195312 -0.0234375 7.375 -1.046875 C 5.5625 -2.078125 4.164062 -3.535156 3.1875 -5.421875 C 2.207031 -7.304688 1.71875 -9.539062 1.71875 -12.125 C 1.71875 -14.644531 2.207031 -16.851562 3.1875 -18.75 C 4.164062 -20.65625 5.539062 -22.140625 7.3125 -23.203125 C 9.09375 -24.265625 11.1875 -24.796875 13.59375 -24.796875 C 15.75 -24.796875 17.691406 -24.335938 19.421875 -23.421875 C 21.160156 -22.515625 22.539062 -21.140625 23.5625 -19.296875 C 24.582031 -17.453125 25.09375 -15.140625 25.09375 -12.359375 L 25.09375 -10.5 L 8.4375 -10.5 L 8.4375 -10.484375 C 8.4375 -8.660156 8.929688 -7.222656 9.921875 -6.171875 C 10.921875 -5.117188 12.269531 -4.59375 13.96875 -4.59375 C 15.113281 -4.59375 16.097656 -4.832031 16.921875 -5.3125 C 17.753906 -5.789062 18.335938 -6.492188 18.671875 -7.421875 L 24.953125 -7.015625 C 24.472656 -4.734375 23.257812 -2.910156 21.3125 -1.546875 C 19.375 -0.191406 16.890625 0.484375 13.859375 0.484375 Z M 8.4375 -14.703125 L 18.703125 -14.703125 C 18.691406 -16.160156 18.222656 -17.363281 17.296875 -18.3125 C 16.378906 -19.257812 15.179688 -19.734375 13.703125 -19.734375 C 12.191406 -19.734375 10.953125 -19.242188 9.984375 -18.265625 C 9.023438 -17.285156 8.507812 -16.097656 8.4375 -14.703125 Z M 8.4375 -14.703125 "/></g></g></g><g fill="#222038" fill-opacity="1"><g transform="translate(192.872463, 180.839374)"><g><path d="M 2.703125 0 L 2.703125 -24.484375 L 9.5 -24.484375 L 9.5 0 Z M 6.109375 -27.625 C 5.109375 -27.625 4.25 -27.960938 3.53125 -28.640625 C 2.8125 -29.316406 2.453125 -30.128906 2.453125 -31.078125 C 2.453125 -32.023438 2.8125 -32.832031 3.53125 -33.5 C 4.25 -34.164062 5.109375 -34.5 6.109375 -34.5 C 7.117188 -34.5 7.984375 -34.164062 8.703125 -33.5 C 9.429688 -32.832031 9.796875 -32.023438 9.796875 -31.078125 C 9.796875 -30.128906 9.429688 -29.316406 8.703125 -28.640625 C 7.984375 -27.960938 7.117188 -27.625 6.109375 -27.625 Z M 6.109375 -27.625 "/></g></g></g><g fill="#222038" fill-opacity="1"><g transform="translate(203.956082, 180.839374)"><g><path d="M 9.5 -14.15625 L 9.5 0 L 2.703125 0 L 2.703125 -24.484375 L 9.171875 -24.484375 L 9.171875 -20.15625 L 9.46875 -20.15625 C 10.019531 -21.582031 10.929688 -22.710938 12.203125 -23.546875 C 13.472656 -24.378906 15.015625 -24.796875 16.828125 -24.796875 C 19.378906 -24.796875 21.425781 -23.972656 22.96875 -22.328125 C 24.507812 -20.691406 25.28125 -18.441406 25.28125 -15.578125 L 25.28125 0 L 18.484375 0 L 18.484375 -14.375 C 18.492188 -15.875 18.109375 -17.046875 17.328125 -17.890625 C 16.554688 -18.734375 15.492188 -19.15625 14.140625 -19.15625 C 12.765625 -19.15625 11.648438 -18.71875 10.796875 -17.84375 C 9.941406 -16.96875 9.507812 -15.738281 9.5 -14.15625 Z M 9.5 -14.15625 "/></g></g></g><g fill="#222038" fill-opacity="1"><g transform="translate(230.734981, 180.839374)"><g><path d="M 2.578125 0 L 2.578125 -4.046875 L 14.5625 -18.890625 L 14.5625 -19.0625 L 3 -19.0625 L 3 -24.484375 L 22.734375 -24.484375 L 22.734375 -20.0625 L 11.484375 -5.59375 L 11.484375 -5.421875 L 23.15625 -5.421875 L 23.15625 0 Z M 2.578125 0 "/></g></g></g><g fill="#9493a2" fill-opacity="1"><g transform="translate(134.071196, 198.406965)"><g><path d="M 1.65625 0 L 1.65625 -13.734375 L 9.953125 -13.734375 L 9.953125 -12.25 L 3.328125 -12.25 L 3.328125 -7.609375 L 9.515625 -7.609375 L 9.515625 -6.140625 L 3.328125 -6.140625 L 3.328125 -1.46875 L 10.046875 -1.46875 L 10.046875 0 Z M 1.65625 0 "/></g></g></g><g fill="#9493a2" fill-opacity="1"><g transform="translate(144.787493, 198.406965)"><g><path d="M 3.03125 -13.734375 L 3.03125 0 L 1.453125 0 L 1.453125 -13.734375 Z M 3.03125 -13.734375 "/></g></g></g><g fill="#9493a2" fill-opacity="1"><g transform="translate(148.696615, 198.406965)"><g><path d="M 5.765625 0.21875 C 4.773438 0.21875 3.921875 0 3.203125 -0.4375 C 2.484375 -0.882812 1.929688 -1.503906 1.546875 -2.296875 C 1.160156 -3.085938 0.96875 -4.007812 0.96875 -5.0625 C 0.96875 -6.125 1.160156 -7.054688 1.546875 -7.859375 C 1.929688 -8.660156 2.46875 -9.285156 3.15625 -9.734375 C 3.851562 -10.191406 4.671875 -10.421875 5.609375 -10.421875 C 6.140625 -10.421875 6.664062 -10.332031 7.1875 -10.15625 C 7.707031 -9.976562 8.179688 -9.6875 8.609375 -9.28125 C 9.046875 -8.882812 9.390625 -8.359375 9.640625 -7.703125 C 9.898438 -7.046875 10.03125 -6.238281 10.03125 -5.28125 L 10.03125 -4.609375 L 2.546875 -4.609375 C 2.585938 -3.515625 2.898438 -2.671875 3.484375 -2.078125 C 4.078125 -1.492188 4.835938 -1.203125 5.765625 -1.203125 C 6.390625 -1.203125 6.921875 -1.335938 7.359375 -1.609375 C 7.804688 -1.878906 8.132812 -2.28125 8.34375 -2.8125 L 9.859375 -2.390625 C 9.617188 -1.609375 9.132812 -0.976562 8.40625 -0.5 C 7.6875 -0.0195312 6.804688 0.21875 5.765625 0.21875 Z M 2.546875 -5.984375 L 8.421875 -5.984375 C 8.421875 -6.847656 8.164062 -7.566406 7.65625 -8.140625 C 7.144531 -8.722656 6.460938 -9.015625 5.609375 -9.015625 C 5.003906 -9.015625 4.476562 -8.867188 4.03125 -8.578125 C 3.59375 -8.296875 3.242188 -7.925781 2.984375 -7.46875 C 2.734375 -7.007812 2.585938 -6.515625 2.546875 -5.984375 Z M 2.546875 -5.984375 "/></g></g></g><g fill="#9493a2" fill-opacity="1"><g transform="translate(159.118111, 198.406965)"><g><path d="M 1.453125 0 L 1.453125 -13.734375 L 3.03125 -13.734375 L 3.03125 -5.703125 L 3.21875 -5.703125 L 7.71875 -10.296875 L 9.671875 -10.296875 L 5.328125 -5.890625 L 10 0 L 7.984375 0 L 4.140625 -4.875 L 3.03125 -3.859375 L 3.03125 0 Z M 1.453125 0 "/></g></g></g><g fill="#9493a2" fill-opacity="1"><g transform="translate(168.816011, 198.406965)"><g><path d="M 5.921875 -10.296875 L 5.921875 -8.953125 L 3.734375 -8.953125 L 3.734375 -2.953125 C 3.734375 -2.503906 3.796875 -2.164062 3.921875 -1.9375 C 4.054688 -1.71875 4.226562 -1.570312 4.4375 -1.5 C 4.644531 -1.425781 4.863281 -1.390625 5.09375 -1.390625 C 5.269531 -1.390625 5.410156 -1.398438 5.515625 -1.421875 C 5.628906 -1.441406 5.722656 -1.457031 5.796875 -1.46875 L 6.109375 -0.046875 C 6.003906 -0.015625 5.851562 0.0195312 5.65625 0.0625 C 5.46875 0.113281 5.226562 0.140625 4.9375 0.140625 C 4.488281 0.140625 4.050781 0.046875 3.625 -0.140625 C 3.195312 -0.335938 2.84375 -0.632812 2.5625 -1.03125 C 2.28125 -1.425781 2.140625 -1.921875 2.140625 -2.515625 L 2.140625 -8.953125 L 0.59375 -8.953125 L 0.59375 -10.296875 L 2.140625 -10.296875 L 2.140625 -12.765625 L 3.734375 -12.765625 L 3.734375 -10.296875 Z M 5.921875 -10.296875 "/></g></g></g><g fill="#9493a2" fill-opacity="1"><g transform="translate(175.110324, 198.406965)"><g><path d="M 1.453125 0 L 1.453125 -10.296875 L 2.96875 -10.296875 L 2.96875 -8.734375 L 3.078125 -8.734375 C 3.265625 -9.242188 3.601562 -9.65625 4.09375 -9.96875 C 4.582031 -10.289062 5.140625 -10.453125 5.765625 -10.453125 C 6.046875 -10.453125 6.296875 -10.414062 6.515625 -10.34375 C 6.734375 -10.28125 6.921875 -10.191406 7.078125 -10.078125 L 6.546875 -8.734375 C 6.429688 -8.796875 6.296875 -8.84375 6.140625 -8.875 C 5.992188 -8.90625 5.820312 -8.921875 5.625 -8.921875 C 4.875 -8.921875 4.253906 -8.691406 3.765625 -8.234375 C 3.273438 -7.773438 3.03125 -7.203125 3.03125 -6.515625 L 3.03125 0 Z M 1.453125 0 "/></g></g></g><g fill="#9493a2" fill-opacity="1"><g transform="translate(181.779832, 198.406965)"><g><path d="M 1.453125 0 L 1.453125 -10.296875 L 3.03125 -10.296875 L 3.03125 0 Z M 2.25 -12.015625 C 1.945312 -12.015625 1.679688 -12.117188 1.453125 -12.328125 C 1.234375 -12.535156 1.125 -12.785156 1.125 -13.078125 C 1.125 -13.378906 1.234375 -13.632812 1.453125 -13.84375 C 1.679688 -14.050781 1.945312 -14.15625 2.25 -14.15625 C 2.5625 -14.15625 2.828125 -14.050781 3.046875 -13.84375 C 3.265625 -13.632812 3.375 -13.378906 3.375 -13.078125 C 3.375 -12.785156 3.265625 -12.535156 3.046875 -12.328125 C 2.828125 -12.117188 2.5625 -12.015625 2.25 -12.015625 Z M 2.25 -12.015625 "/></g></g></g><g fill="#9493a2" fill-opacity="1"><g transform="translate(185.688956, 198.406965)"><g><path d="M 1.453125 0 L 1.453125 -13.734375 L 3.03125 -13.734375 L 3.03125 -5.703125 L 3.21875 -5.703125 L 7.71875 -10.296875 L 9.671875 -10.296875 L 5.328125 -5.890625 L 10 0 L 7.984375 0 L 4.140625 -4.875 L 3.03125 -3.859375 L 3.03125 0 Z M 1.453125 0 "/></g></g></g><g fill="#9493a2" fill-opacity="1"><g transform="translate(195.386856, 198.406965)"><g><path d="M 1.453125 0 L 1.453125 -10.296875 L 2.96875 -10.296875 L 2.96875 -8.6875 L 3.109375 -8.6875 C 3.328125 -9.238281 3.671875 -9.664062 4.140625 -9.96875 C 4.617188 -10.269531 5.195312 -10.421875 5.875 -10.421875 C 6.550781 -10.421875 7.113281 -10.269531 7.5625 -9.96875 C 8.019531 -9.664062 8.378906 -9.238281 8.640625 -8.6875 L 8.734375 -8.6875 C 9.003906 -9.21875 9.398438 -9.640625 9.921875 -9.953125 C 10.453125 -10.265625 11.085938 -10.421875 11.828125 -10.421875 C 12.742188 -10.421875 13.492188 -10.132812 14.078125 -9.5625 C 14.660156 -8.988281 14.953125 -8.097656 14.953125 -6.890625 L 14.953125 0 L 13.375 0 L 13.375 -6.890625 C 13.375 -7.648438 13.164062 -8.191406 12.75 -8.515625 C 12.332031 -8.847656 11.84375 -9.015625 11.28125 -9.015625 C 10.5625 -9.015625 10.003906 -8.796875 9.609375 -8.359375 C 9.210938 -7.921875 9.015625 -7.367188 9.015625 -6.703125 L 9.015625 0 L 7.40625 0 L 7.40625 -7.046875 C 7.40625 -7.628906 7.210938 -8.101562 6.828125 -8.46875 C 6.453125 -8.832031 5.960938 -9.015625 5.359375 -9.015625 C 4.953125 -9.015625 4.570312 -8.898438 4.21875 -8.671875 C 3.863281 -8.453125 3.578125 -8.148438 3.359375 -7.765625 C 3.140625 -7.378906 3.03125 -6.9375 3.03125 -6.4375 L 3.03125 0 Z M 1.453125 0 "/></g></g></g><g fill="#9493a2" fill-opacity="1"><g transform="translate(211.221936, 198.406965)"><g><path d="M 5.765625 0.21875 C 4.773438 0.21875 3.921875 0 3.203125 -0.4375 C 2.484375 -0.882812 1.929688 -1.503906 1.546875 -2.296875 C 1.160156 -3.085938 0.96875 -4.007812 0.96875 -5.0625 C 0.96875 -6.125 1.160156 -7.054688 1.546875 -7.859375 C 1.929688 -8.660156 2.46875 -9.285156 3.15625 -9.734375 C 3.851562 -10.191406 4.671875 -10.421875 5.609375 -10.421875 C 6.140625 -10.421875 6.664062 -10.332031 7.1875 -10.15625 C 7.707031 -9.976562 8.179688 -9.6875 8.609375 -9.28125 C 9.046875 -8.882812 9.390625 -8.359375 9.640625 -7.703125 C 9.898438 -7.046875 10.03125 -6.238281 10.03125 -5.28125 L 10.03125 -4.609375 L 2.546875 -4.609375 C 2.585938 -3.515625 2.898438 -2.671875 3.484375 -2.078125 C 4.078125 -1.492188 4.835938 -1.203125 5.765625 -1.203125 C 6.390625 -1.203125 6.921875 -1.335938 7.359375 -1.609375 C 7.804688 -1.878906 8.132812 -2.28125 8.34375 -2.8125 L 9.859375 -2.390625 C 9.617188 -1.609375 9.132812 -0.976562 8.40625 -0.5 C 7.6875 -0.0195312 6.804688 0.21875 5.765625 0.21875 Z M 2.546875 -5.984375 L 8.421875 -5.984375 C 8.421875 -6.847656 8.164062 -7.566406 7.65625 -8.140625 C 7.144531 -8.722656 6.460938 -9.015625 5.609375 -9.015625 C 5.003906 -9.015625 4.476562 -8.867188 4.03125 -8.578125 C 3.59375 -8.296875 3.242188 -7.925781 2.984375 -7.46875 C 2.734375 -7.007812 2.585938 -6.515625 2.546875 -5.984375 Z M 2.546875 -5.984375 "/></g></g></g><g fill="#9493a2" fill-opacity="1"><g transform="translate(221.643434, 198.406965)"><g><path d="M 1.453125 0 L 1.453125 -10.296875 L 3.03125 -10.296875 L 3.03125 0 Z M 2.25 -12.015625 C 1.945312 -12.015625 1.679688 -12.117188 1.453125 -12.328125 C 1.234375 -12.535156 1.125 -12.785156 1.125 -13.078125 C 1.125 -13.378906 1.234375 -13.632812 1.453125 -13.84375 C 1.679688 -14.050781 1.945312 -14.15625 2.25 -14.15625 C 2.5625 -14.15625 2.828125 -14.050781 3.046875 -13.84375 C 3.265625 -13.632812 3.375 -13.378906 3.375 -13.078125 C 3.375 -12.785156 3.265625 -12.535156 3.046875 -12.328125 C 2.828125 -12.117188 2.5625 -12.015625 2.25 -12.015625 Z M 2.25 -12.015625 "/></g></g></g><g fill="#9493a2" fill-opacity="1"><g transform="translate(225.552558, 198.406965)"><g><path d="M 8.734375 -7.984375 L 7.3125 -7.59375 C 7.175781 -7.945312 6.945312 -8.28125 6.625 -8.59375 C 6.300781 -8.90625 5.789062 -9.0625 5.09375 -9.0625 C 4.46875 -9.0625 3.941406 -8.914062 3.515625 -8.625 C 3.097656 -8.34375 2.890625 -7.976562 2.890625 -7.53125 C 2.890625 -7.132812 3.03125 -6.820312 3.3125 -6.59375 C 3.601562 -6.375 4.054688 -6.1875 4.671875 -6.03125 L 6.1875 -5.65625 C 8.007812 -5.207031 8.921875 -4.28125 8.921875 -2.875 C 8.921875 -2.28125 8.753906 -1.75 8.421875 -1.28125 C 8.085938 -0.820312 7.617188 -0.457031 7.015625 -0.1875 C 6.410156 0.0820312 5.707031 0.21875 4.90625 0.21875 C 3.851562 0.21875 2.984375 -0.0078125 2.296875 -0.46875 C 1.609375 -0.925781 1.171875 -1.59375 0.984375 -2.46875 L 2.5 -2.84375 C 2.78125 -1.726562 3.570312 -1.171875 4.875 -1.171875 C 5.613281 -1.171875 6.203125 -1.328125 6.640625 -1.640625 C 7.078125 -1.960938 7.296875 -2.34375 7.296875 -2.78125 C 7.296875 -3.507812 6.785156 -3.992188 5.765625 -4.234375 L 4.046875 -4.640625 C 3.109375 -4.859375 2.414062 -5.203125 1.96875 -5.671875 C 1.53125 -6.148438 1.3125 -6.742188 1.3125 -7.453125 C 1.3125 -8.035156 1.472656 -8.550781 1.796875 -9 C 2.128906 -9.445312 2.582031 -9.796875 3.15625 -10.046875 C 3.726562 -10.296875 4.375 -10.421875 5.09375 -10.421875 C 6.113281 -10.421875 6.914062 -10.195312 7.5 -9.75 C 8.082031 -9.3125 8.492188 -8.722656 8.734375 -7.984375 Z M 8.734375 -7.984375 "/></g></g></g><g fill="#9493a2" fill-opacity="1"><g transform="translate(234.848456, 198.406965)"><g><path d="M 5.921875 -10.296875 L 5.921875 -8.953125 L 3.734375 -8.953125 L 3.734375 -2.953125 C 3.734375 -2.503906 3.796875 -2.164062 3.921875 -1.9375 C 4.054688 -1.71875 4.226562 -1.570312 4.4375 -1.5 C 4.644531 -1.425781 4.863281 -1.390625 5.09375 -1.390625 C 5.269531 -1.390625 5.410156 -1.398438 5.515625 -1.421875 C 5.628906 -1.441406 5.722656 -1.457031 5.796875 -1.46875 L 6.109375 -0.046875 C 6.003906 -0.015625 5.851562 0.0195312 5.65625 0.0625 C 5.46875 0.113281 5.226562 0.140625 4.9375 0.140625 C 4.488281 0.140625 4.050781 0.046875 3.625 -0.140625 C 3.195312 -0.335938 2.84375 -0.632812 2.5625 -1.03125 C 2.28125 -1.425781 2.140625 -1.921875 2.140625 -2.515625 L 2.140625 -8.953125 L 0.59375 -8.953125 L 0.59375 -10.296875 L 2.140625 -10.296875 L 2.140625 -12.765625 L 3.734375 -12.765625 L 3.734375 -10.296875 Z M 5.921875 -10.296875 "/></g></g></g><g fill="#9493a2" fill-opacity="1"><g transform="translate(241.142763, 198.406965)"><g><path d="M 5.765625 0.21875 C 4.773438 0.21875 3.921875 0 3.203125 -0.4375 C 2.484375 -0.882812 1.929688 -1.503906 1.546875 -2.296875 C 1.160156 -3.085938 0.96875 -4.007812 0.96875 -5.0625 C 0.96875 -6.125 1.160156 -7.054688 1.546875 -7.859375 C 1.929688 -8.660156 2.46875 -9.285156 3.15625 -9.734375 C 3.851562 -10.191406 4.671875 -10.421875 5.609375 -10.421875 C 6.140625 -10.421875 6.664062 -10.332031 7.1875 -10.15625 C 7.707031 -9.976562 8.179688 -9.6875 8.609375 -9.28125 C 9.046875 -8.882812 9.390625 -8.359375 9.640625 -7.703125 C 9.898438 -7.046875 10.03125 -6.238281 10.03125 -5.28125 L 10.03125 -4.609375 L 2.546875 -4.609375 C 2.585938 -3.515625 2.898438 -2.671875 3.484375 -2.078125 C 4.078125 -1.492188 4.835938 -1.203125 5.765625 -1.203125 C 6.390625 -1.203125 6.921875 -1.335938 7.359375 -1.609375 C 7.804688 -1.878906 8.132812 -2.28125 8.34375 -2.8125 L 9.859375 -2.390625 C 9.617188 -1.609375 9.132812 -0.976562 8.40625 -0.5 C 7.6875 -0.0195312 6.804688 0.21875 5.765625 0.21875 Z M 2.546875 -5.984375 L 8.421875 -5.984375 C 8.421875 -6.847656 8.164062 -7.566406 7.65625 -8.140625 C 7.144531 -8.722656 6.460938 -9.015625 5.609375 -9.015625 C 5.003906 -9.015625 4.476562 -8.867188 4.03125 -8.578125 C 3.59375 -8.296875 3.242188 -7.925781 2.984375 -7.46875 C 2.734375 -7.007812 2.585938 -6.515625 2.546875 -5.984375 Z M 2.546875 -5.984375 "/></g></g></g><g fill="#9493a2" fill-opacity="1"><g transform="translate(251.564256, 198.406965)"><g><path d="M 1.453125 0 L 1.453125 -10.296875 L 2.96875 -10.296875 L 2.96875 -8.734375 L 3.078125 -8.734375 C 3.265625 -9.242188 3.601562 -9.65625 4.09375 -9.96875 C 4.582031 -10.289062 5.140625 -10.453125 5.765625 -10.453125 C 6.046875 -10.453125 6.296875 -10.414062 6.515625 -10.34375 C 6.734375 -10.28125 6.921875 -10.191406 7.078125 -10.078125 L 6.546875 -8.734375 C 6.429688 -8.796875 6.296875 -8.84375 6.140625 -8.875 C 5.992188 -8.90625 5.820312 -8.921875 5.625 -8.921875 C 4.875 -8.921875 4.253906 -8.691406 3.765625 -8.234375 C 3.273438 -7.773438 3.03125 -7.203125 3.03125 -6.515625 L 3.03125 0 Z M 1.453125 0 "/></g></g></g><g fill="#9493a2" fill-opacity="1"><g transform="translate(258.233758, 198.406965)"><g/></g></g><g fill="#9493a2" fill-opacity="1"><g transform="translate(262.973672, 198.406965)"><g><path d="M 5.328125 0.1875 C 4.429688 0.1875 3.65625 0.0234375 3 -0.296875 C 2.351562 -0.628906 1.851562 -1.082031 1.5 -1.65625 C 1.144531 -2.238281 0.96875 -2.898438 0.96875 -3.640625 C 0.96875 -4.472656 1.21875 -5.175781 1.71875 -5.75 C 2.21875 -6.320312 2.867188 -6.890625 3.671875 -7.453125 C 3.203125 -8.015625 2.816406 -8.550781 2.515625 -9.0625 C 2.210938 -9.582031 2.0625 -10.144531 2.0625 -10.75 C 2.0625 -11.675781 2.363281 -12.425781 2.96875 -13 C 3.570312 -13.570312 4.378906 -13.859375 5.390625 -13.859375 C 6.078125 -13.859375 6.664062 -13.722656 7.15625 -13.453125 C 7.65625 -13.191406 8.039062 -12.84375 8.3125 -12.40625 C 8.582031 -11.96875 8.71875 -11.5 8.71875 -11 C 8.71875 -10.332031 8.550781 -9.757812 8.21875 -9.28125 C 7.894531 -8.800781 7.453125 -8.351562 6.890625 -7.9375 L 5.890625 -7.1875 L 8.875 -3.546875 C 9.050781 -3.890625 9.1875 -4.265625 9.28125 -4.671875 C 9.382812 -5.085938 9.4375 -5.53125 9.4375 -6 L 10.96875 -6 C 10.96875 -5.050781 10.847656 -4.28125 10.609375 -3.6875 C 10.378906 -3.101562 10.132812 -2.644531 9.875 -2.3125 L 11.765625 0 L 9.859375 0 L 8.890625 -1.171875 C 8.441406 -0.710938 7.894531 -0.367188 7.25 -0.140625 C 6.601562 0.078125 5.960938 0.1875 5.328125 0.1875 Z M 7.953125 -2.3125 L 4.671875 -6.28125 L 4.15625 -5.890625 C 3.539062 -5.441406 3.125 -5 2.90625 -4.5625 C 2.6875 -4.132812 2.578125 -3.828125 2.578125 -3.640625 C 2.578125 -3.210938 2.6875 -2.8125 2.90625 -2.4375 C 3.132812 -2.070312 3.453125 -1.773438 3.859375 -1.546875 C 4.265625 -1.316406 4.738281 -1.203125 5.28125 -1.203125 C 6.28125 -1.203125 7.171875 -1.570312 7.953125 -2.3125 Z M 4.90625 -8.359375 L 5.8125 -9.03125 C 6.207031 -9.289062 6.519531 -9.5625 6.75 -9.84375 C 6.988281 -10.132812 7.109375 -10.519531 7.109375 -11 C 7.109375 -11.34375 6.953125 -11.675781 6.640625 -12 C 6.335938 -12.332031 5.9375 -12.5 5.4375 -12.5 C 5.09375 -12.5 4.785156 -12.410156 4.515625 -12.234375 C 4.253906 -12.054688 4.046875 -11.832031 3.890625 -11.5625 C 3.742188 -11.289062 3.671875 -11.007812 3.671875 -10.71875 C 3.671875 -10.34375 3.789062 -9.957031 4.03125 -9.5625 C 4.28125 -9.175781 4.570312 -8.773438 4.90625 -8.359375 Z M 4.90625 -8.359375 "/></g></g></g><g fill="#9493a2" fill-opacity="1"><g transform="translate(134.071196, 224.656963)"><g><path d="M 12.546875 -13.734375 L 12.546875 0 L 10.9375 0 L 3.453125 -10.78125 L 3.328125 -10.78125 L 3.328125 0 L 1.65625 0 L 1.65625 -13.734375 L 3.265625 -13.734375 L 10.78125 -2.921875 L 10.90625 -2.921875 L 10.90625 -13.734375 Z M 12.546875 -13.734375 "/></g></g></g><g fill="#9493a2" fill-opacity="1"><g transform="translate(147.708689, 224.656963)"><g><path d="M 5.625 0.21875 C 4.695312 0.21875 3.882812 0 3.1875 -0.4375 C 2.488281 -0.882812 1.941406 -1.503906 1.546875 -2.296875 C 1.160156 -3.097656 0.96875 -4.03125 0.96875 -5.09375 C 0.96875 -6.164062 1.160156 -7.101562 1.546875 -7.90625 C 1.941406 -8.707031 2.488281 -9.328125 3.1875 -9.765625 C 3.882812 -10.203125 4.695312 -10.421875 5.625 -10.421875 C 6.5625 -10.421875 7.378906 -10.203125 8.078125 -9.765625 C 8.773438 -9.328125 9.316406 -8.707031 9.703125 -7.90625 C 10.097656 -7.101562 10.296875 -6.164062 10.296875 -5.09375 C 10.296875 -4.03125 10.097656 -3.097656 9.703125 -2.296875 C 9.316406 -1.503906 8.773438 -0.882812 8.078125 -0.4375 C 7.378906 0 6.5625 0.21875 5.625 0.21875 Z M 5.625 -1.203125 C 6.332031 -1.203125 6.914062 -1.382812 7.375 -1.75 C 7.832031 -2.113281 8.171875 -2.585938 8.390625 -3.171875 C 8.609375 -3.765625 8.71875 -4.40625 8.71875 -5.09375 C 8.71875 -5.78125 8.609375 -6.421875 8.390625 -7.015625 C 8.171875 -7.609375 7.832031 -8.085938 7.375 -8.453125 C 6.914062 -8.828125 6.332031 -9.015625 5.625 -9.015625 C 4.925781 -9.015625 4.347656 -8.828125 3.890625 -8.453125 C 3.429688 -8.085938 3.09375 -7.609375 2.875 -7.015625 C 2.65625 -6.421875 2.546875 -5.78125 2.546875 -5.09375 C 2.546875 -4.40625 2.65625 -3.765625 2.875 -3.171875 C 3.09375 -2.585938 3.429688 -2.113281 3.890625 -1.75 C 4.347656 -1.382812 4.925781 -1.203125 5.625 -1.203125 Z M 5.625 -1.203125 "/></g></g></g><g fill="#9493a2" fill-opacity="1"><g transform="translate(158.398183, 224.656963)"><g><path d="M 5.921875 -10.296875 L 5.921875 -8.953125 L 3.734375 -8.953125 L 3.734375 -2.953125 C 3.734375 -2.503906 3.796875 -2.164062 3.921875 -1.9375 C 4.054688 -1.71875 4.226562 -1.570312 4.4375 -1.5 C 4.644531 -1.425781 4.863281 -1.390625 5.09375 -1.390625 C 5.269531 -1.390625 5.410156 -1.398438 5.515625 -1.421875 C 5.628906 -1.441406 5.722656 -1.457031 5.796875 -1.46875 L 6.109375 -0.046875 C 6.003906 -0.015625 5.851562 0.0195312 5.65625 0.0625 C 5.46875 0.113281 5.226562 0.140625 4.9375 0.140625 C 4.488281 0.140625 4.050781 0.046875 3.625 -0.140625 C 3.195312 -0.335938 2.84375 -0.632812 2.5625 -1.03125 C 2.28125 -1.425781 2.140625 -1.921875 2.140625 -2.515625 L 2.140625 -8.953125 L 0.59375 -8.953125 L 0.59375 -10.296875 L 2.140625 -10.296875 L 2.140625 -12.765625 L 3.734375 -12.765625 L 3.734375 -10.296875 Z M 5.921875 -10.296875 "/></g></g></g><g fill="#9493a2" fill-opacity="1"><g transform="translate(164.692494, 224.656963)"><g><path d="M 5.328125 0.21875 C 4.472656 0.21875 3.71875 0 3.0625 -0.4375 C 2.40625 -0.875 1.890625 -1.488281 1.515625 -2.28125 C 1.148438 -3.082031 0.96875 -4.03125 0.96875 -5.125 C 0.96875 -6.207031 1.148438 -7.144531 1.515625 -7.9375 C 1.890625 -8.726562 2.40625 -9.335938 3.0625 -9.765625 C 3.726562 -10.203125 4.492188 -10.421875 5.359375 -10.421875 C 6.035156 -10.421875 6.566406 -10.3125 6.953125 -10.09375 C 7.347656 -9.875 7.644531 -9.625 7.84375 -9.34375 C 8.050781 -9.0625 8.21875 -8.832031 8.34375 -8.65625 L 8.46875 -8.65625 L 8.46875 -13.734375 L 10.046875 -13.734375 L 10.046875 0 L 8.53125 0 L 8.53125 -1.578125 L 8.34375 -1.578125 C 8.21875 -1.390625 8.046875 -1.15625 7.828125 -0.875 C 7.617188 -0.59375 7.316406 -0.335938 6.921875 -0.109375 C 6.523438 0.109375 5.992188 0.21875 5.328125 0.21875 Z M 5.546875 -1.203125 C 6.503906 -1.203125 7.234375 -1.566406 7.734375 -2.296875 C 8.242188 -3.023438 8.5 -3.972656 8.5 -5.140625 C 8.5 -6.296875 8.25 -7.226562 7.75 -7.9375 C 7.25 -8.65625 6.515625 -9.015625 5.546875 -9.015625 C 4.878906 -9.015625 4.320312 -8.84375 3.875 -8.5 C 3.425781 -8.15625 3.09375 -7.691406 2.875 -7.109375 C 2.65625 -6.523438 2.546875 -5.867188 2.546875 -5.140625 C 2.546875 -4.410156 2.65625 -3.75 2.875 -3.15625 C 3.101562 -2.5625 3.441406 -2.085938 3.890625 -1.734375 C 4.335938 -1.378906 4.890625 -1.203125 5.546875 -1.203125 Z M 5.546875 -1.203125 "/></g></g></g><g fill="#9493a2" fill-opacity="1"><g transform="translate(175.837591, 224.656963)"><g><path d="M 1.453125 0 L 1.453125 -10.296875 L 3.03125 -10.296875 L 3.03125 0 Z M 2.25 -12.015625 C 1.945312 -12.015625 1.679688 -12.117188 1.453125 -12.328125 C 1.234375 -12.535156 1.125 -12.785156 1.125 -13.078125 C 1.125 -13.378906 1.234375 -13.632812 1.453125 -13.84375 C 1.679688 -14.050781 1.945312 -14.15625 2.25 -14.15625 C 2.5625 -14.15625 2.828125 -14.050781 3.046875 -13.84375 C 3.265625 -13.632812 3.375 -13.378906 3.375 -13.078125 C 3.375 -12.785156 3.265625 -12.535156 3.046875 -12.328125 C 2.828125 -12.117188 2.5625 -12.015625 2.25 -12.015625 Z M 2.25 -12.015625 "/></g></g></g><g fill="#9493a2" fill-opacity="1"><g transform="translate(179.746715, 224.656963)"><g><path d="M 5.765625 0.21875 C 4.773438 0.21875 3.921875 0 3.203125 -0.4375 C 2.484375 -0.882812 1.929688 -1.503906 1.546875 -2.296875 C 1.160156 -3.085938 0.96875 -4.007812 0.96875 -5.0625 C 0.96875 -6.125 1.160156 -7.054688 1.546875 -7.859375 C 1.929688 -8.660156 2.46875 -9.285156 3.15625 -9.734375 C 3.851562 -10.191406 4.671875 -10.421875 5.609375 -10.421875 C 6.140625 -10.421875 6.664062 -10.332031 7.1875 -10.15625 C 7.707031 -9.976562 8.179688 -9.6875 8.609375 -9.28125 C 9.046875 -8.882812 9.390625 -8.359375 9.640625 -7.703125 C 9.898438 -7.046875 10.03125 -6.238281 10.03125 -5.28125 L 10.03125 -4.609375 L 2.546875 -4.609375 C 2.585938 -3.515625 2.898438 -2.671875 3.484375 -2.078125 C 4.078125 -1.492188 4.835938 -1.203125 5.765625 -1.203125 C 6.390625 -1.203125 6.921875 -1.335938 7.359375 -1.609375 C 7.804688 -1.878906 8.132812 -2.28125 8.34375 -2.8125 L 9.859375 -2.390625 C 9.617188 -1.609375 9.132812 -0.976562 8.40625 -0.5 C 7.6875 -0.0195312 6.804688 0.21875 5.765625 0.21875 Z M 2.546875 -5.984375 L 8.421875 -5.984375 C 8.421875 -6.847656 8.164062 -7.566406 7.65625 -8.140625 C 7.144531 -8.722656 6.460938 -9.015625 5.609375 -9.015625 C 5.003906 -9.015625 4.476562 -8.867188 4.03125 -8.578125 C 3.59375 -8.296875 3.242188 -7.925781 2.984375 -7.46875 C 2.734375 -7.007812 2.585938 -6.515625 2.546875 -5.984375 Z M 2.546875 -5.984375 "/></g></g></g><g fill="#9493a2" fill-opacity="1"><g transform="translate(190.168213, 224.656963)"><g><path d="M 3.03125 -6.1875 L 3.03125 0 L 1.453125 0 L 1.453125 -10.296875 L 2.96875 -10.296875 L 2.96875 -8.6875 L 3.109375 -8.6875 C 3.347656 -9.207031 3.710938 -9.625 4.203125 -9.9375 C 4.703125 -10.257812 5.335938 -10.421875 6.109375 -10.421875 C 7.148438 -10.421875 7.988281 -10.101562 8.625 -9.46875 C 9.269531 -8.832031 9.59375 -7.859375 9.59375 -6.546875 L 9.59375 0 L 8.015625 0 L 8.015625 -6.4375 C 8.015625 -7.238281 7.800781 -7.867188 7.375 -8.328125 C 6.957031 -8.785156 6.382812 -9.015625 5.65625 -9.015625 C 4.90625 -9.015625 4.28125 -8.769531 3.78125 -8.28125 C 3.28125 -7.789062 3.03125 -7.09375 3.03125 -6.1875 Z M 3.03125 -6.1875 "/></g></g></g><g fill="#9493a2" fill-opacity="1"><g transform="translate(200.643316, 224.656963)"><g><path d="M 8.734375 -7.984375 L 7.3125 -7.59375 C 7.175781 -7.945312 6.945312 -8.28125 6.625 -8.59375 C 6.300781 -8.90625 5.789062 -9.0625 5.09375 -9.0625 C 4.46875 -9.0625 3.941406 -8.914062 3.515625 -8.625 C 3.097656 -8.34375 2.890625 -7.976562 2.890625 -7.53125 C 2.890625 -7.132812 3.03125 -6.820312 3.3125 -6.59375 C 3.601562 -6.375 4.054688 -6.1875 4.671875 -6.03125 L 6.1875 -5.65625 C 8.007812 -5.207031 8.921875 -4.28125 8.921875 -2.875 C 8.921875 -2.28125 8.753906 -1.75 8.421875 -1.28125 C 8.085938 -0.820312 7.617188 -0.457031 7.015625 -0.1875 C 6.410156 0.0820312 5.707031 0.21875 4.90625 0.21875 C 3.851562 0.21875 2.984375 -0.0078125 2.296875 -0.46875 C 1.609375 -0.925781 1.171875 -1.59375 0.984375 -2.46875 L 2.5 -2.84375 C 2.78125 -1.726562 3.570312 -1.171875 4.875 -1.171875 C 5.613281 -1.171875 6.203125 -1.328125 6.640625 -1.640625 C 7.078125 -1.960938 7.296875 -2.34375 7.296875 -2.78125 C 7.296875 -3.507812 6.785156 -3.992188 5.765625 -4.234375 L 4.046875 -4.640625 C 3.109375 -4.859375 2.414062 -5.203125 1.96875 -5.671875 C 1.53125 -6.148438 1.3125 -6.742188 1.3125 -7.453125 C 1.3125 -8.035156 1.472656 -8.550781 1.796875 -9 C 2.128906 -9.445312 2.582031 -9.796875 3.15625 -10.046875 C 3.726562 -10.296875 4.375 -10.421875 5.09375 -10.421875 C 6.113281 -10.421875 6.914062 -10.195312 7.5 -9.75 C 8.082031 -9.3125 8.492188 -8.722656 8.734375 -7.984375 Z M 8.734375 -7.984375 "/></g></g></g><g fill="#9493a2" fill-opacity="1"><g transform="translate(209.939219, 224.656963)"><g><path d="M 5.921875 -10.296875 L 5.921875 -8.953125 L 3.734375 -8.953125 L 3.734375 -2.953125 C 3.734375 -2.503906 3.796875 -2.164062 3.921875 -1.9375 C 4.054688 -1.71875 4.226562 -1.570312 4.4375 -1.5 C 4.644531 -1.425781 4.863281 -1.390625 5.09375 -1.390625 C 5.269531 -1.390625 5.410156 -1.398438 5.515625 -1.421875 C 5.628906 -1.441406 5.722656 -1.457031 5.796875 -1.46875 L 6.109375 -0.046875 C 6.003906 -0.015625 5.851562 0.0195312 5.65625 0.0625 C 5.46875 0.113281 5.226562 0.140625 4.9375 0.140625 C 4.488281 0.140625 4.050781 0.046875 3.625 -0.140625 C 3.195312 -0.335938 2.84375 -0.632812 2.5625 -1.03125 C 2.28125 -1.425781 2.140625 -1.921875 2.140625 -2.515625 L 2.140625 -8.953125 L 0.59375 -8.953125 L 0.59375 -10.296875 L 2.140625 -10.296875 L 2.140625 -12.765625 L 3.734375 -12.765625 L 3.734375 -10.296875 Z M 5.921875 -10.296875 "/></g></g></g></svg>